<?xml version="1.0" encoding="UTF-8" standalone="no"?>
<!-- Created with Inkscape (http://www.inkscape.org/) -->

<svg
   xmlns:dc="http://purl.org/dc/elements/1.1/"
   xmlns:cc="http://creativecommons.org/ns#"
   xmlns:rdf="http://www.w3.org/1999/02/22-rdf-syntax-ns#"
   xmlns:svg="http://www.w3.org/2000/svg"
   xmlns="http://www.w3.org/2000/svg"
   xmlns:sodipodi="http://sodipodi.sourceforge.net/DTD/sodipodi-0.dtd"
   xmlns:inkscape="http://www.inkscape.org/namespaces/inkscape"
   width="48pt"
   height="48pt"
   viewBox="0 0 16.933334 16.933333"
   version="1.1"
   id="svg979"
   inkscape:version="0.92.4 (5da689c313, 2019-01-14)"
   sodipodi:docname="20 - Pouch Make Up.svg"
   inkscape:export-filename="E:\TR Design Studio Creative\Project Design\TR Creative Design\Icon Design\Project Hiring\Icon Icons\Project - 001\002 - Beauty And Fashion\Send\2 - Solid\20 - Pouch Make Up.png"
   inkscape:export-xdpi="768"
   inkscape:export-ydpi="768">
  <defs
     id="defs973">
    <pattern
       y="0"
       x="0"
       height="6"
       width="6"
       patternUnits="userSpaceOnUse"
       id="EMFhbasepattern" />
    <pattern
       y="0"
       x="0"
       height="6"
       width="6"
       patternUnits="userSpaceOnUse"
       id="EMFhbasepattern-5" />
    <pattern
       y="0"
       x="0"
       height="6"
       width="6"
       patternUnits="userSpaceOnUse"
       id="EMFhbasepattern-9" />
    <pattern
       y="0"
       x="0"
       height="6"
       width="6"
       patternUnits="userSpaceOnUse"
       id="EMFhbasepattern-6" />
    <pattern
       y="0"
       x="0"
       height="6"
       width="6"
       patternUnits="userSpaceOnUse"
       id="EMFhbasepattern-0" />
    <pattern
       y="0"
       x="0"
       height="6"
       width="6"
       patternUnits="userSpaceOnUse"
       id="EMFhbasepattern-4" />
    <pattern
       y="0"
       x="0"
       height="6"
       width="6"
       patternUnits="userSpaceOnUse"
       id="EMFhbasepattern-1" />
    <pattern
       y="0"
       x="0"
       height="6"
       width="6"
       patternUnits="userSpaceOnUse"
       id="EMFhbasepattern-8" />
    <pattern
       y="0"
       x="0"
       height="6"
       width="6"
       patternUnits="userSpaceOnUse"
       id="EMFhbasepattern-82" />
    <pattern
       y="0"
       x="0"
       height="6"
       width="6"
       patternUnits="userSpaceOnUse"
       id="EMFhbasepattern-58" />
    <pattern
       y="0"
       x="0"
       height="6"
       width="6"
       patternUnits="userSpaceOnUse"
       id="EMFhbasepattern-97" />
  </defs>
  <sodipodi:namedview
     id="base"
     pagecolor="#ffffff"
     bordercolor="#666666"
     borderopacity="1.0"
     inkscape:pageopacity="0.0"
     inkscape:pageshadow="2"
     inkscape:zoom="8.546875"
     inkscape:cx="32"
     inkscape:cy="32"
     inkscape:document-units="pt"
     inkscape:current-layer="layer1"
     showgrid="false"
     units="pt"
     inkscape:window-width="1366"
     inkscape:window-height="716"
     inkscape:window-x="-8"
     inkscape:window-y="-8"
     inkscape:window-maximized="1"
     inkscape:snap-bbox="true"
     inkscape:bbox-nodes="true"
     inkscape:snap-nodes="false"
     showguides="false">
    <inkscape:grid
       type="xygrid"
       id="grid1526" />
    <sodipodi:guide
       position="0.97013909,15.963209"
       orientation="56.666615,0"
       id="guide1528"
       inkscape:locked="false" />
    <sodipodi:guide
       position="0.97013909,0.97016731"
       orientation="0,56.666667"
       id="guide1530"
       inkscape:locked="false" />
    <sodipodi:guide
       position="15.963195,0.97016731"
       orientation="-56.666615,0"
       id="guide1532"
       inkscape:locked="false" />
    <sodipodi:guide
       position="15.963195,15.963209"
       orientation="0,-56.666667"
       id="guide1534"
       inkscape:locked="false" />
  </sodipodi:namedview>
  <metadata
     id="metadata976">
    <rdf:RDF>
      <cc:Work
         rdf:about="">
        <dc:format>image/svg+xml</dc:format>
        <dc:type
           rdf:resource="http://purl.org/dc/dcmitype/StillImage" />
        <dc:title></dc:title>
      </cc:Work>
    </rdf:RDF>
  </metadata>
  <g
     inkscape:label="Layer 1"
     inkscape:groupmode="layer"
     id="layer1"
     transform="translate(0,-280.06668)">
    <path
       style="color:#000000;font-style:normal;font-variant:normal;font-weight:normal;font-stretch:normal;font-size:medium;line-height:normal;font-family:sans-serif;font-variant-ligatures:normal;font-variant-position:normal;font-variant-caps:normal;font-variant-numeric:normal;font-variant-alternates:normal;font-feature-settings:normal;text-indent:0;text-align:start;text-decoration:none;text-decoration-line:none;text-decoration-style:solid;text-decoration-color:#000000;letter-spacing:normal;word-spacing:normal;text-transform:none;writing-mode:lr-tb;direction:ltr;text-orientation:mixed;dominant-baseline:auto;baseline-shift:baseline;text-anchor:start;white-space:normal;shape-padding:0;clip-rule:nonzero;display:inline;overflow:visible;visibility:visible;opacity:1;isolation:auto;mix-blend-mode:normal;color-interpolation:sRGB;color-interpolation-filters:linearRGB;solid-color:#000000;solid-opacity:1;vector-effect:none;fill:#E3E3E3;fill-opacity:1;fill-rule:nonzero;stroke:none;stroke-width:0.529167;stroke-linecap:round;stroke-linejoin:round;stroke-miterlimit:1.5;stroke-dasharray:none;stroke-dashoffset:0;stroke-opacity:1;paint-order:markers fill stroke;color-rendering:auto;image-rendering:auto;shape-rendering:auto;text-rendering:auto;enable-background:accumulate"
       d="m 9.4367344,281.03719 c -0.2202653,0.0165 -0.4371299,0.0485 -0.6461265,0.10089 v 1.33513 a 0.32282724,0.32282724 0 1 1 -0.6454951,0 v -1.09748 c -0.033423,0.0172 -0.067823,0.0332 -0.1002341,0.0517 -0.4906685,0.28039 -0.869276,0.75764 -0.869276,1.36727 0,0.89293 0.3776315,1.48542 0.7577012,1.81797 0.056125,0.0492 0.1108097,0.0835 0.1664171,0.12293 a 0.32282915,0.32282915 0 0 1 0.04539,-0.004 h 3.278538 c 0.05412,-0.0385 0.107528,-0.0714 0.162004,-0.11918 0.38007,-0.33255 0.755179,-0.92503 0.755179,-1.81796 0,-0.60964 -0.379236,-1.08689 -0.869906,-1.36727 -0.0325,-0.0185 -0.06671,-0.0344 -0.100221,-0.0517 v 1.09748 a 0.32282724,0.32282724 0 1 1 -0.645495,0 v -1.33512 c -0.208174,-0.0522 -0.423597,-0.0843 -0.642973,-0.1009 v 1.10943 a 0.32282724,0.32282724 0 1 1 -0.6454973,0 z m -5.8113515,3.69456 a 0.32278028,0.32278028 0 0 0 -0.3214872,0.32402 v 0.9676 h 2.5800909 v -0.9676 a 0.32278028,0.32278028 0 0 0 -0.3214872,-0.32402 z m 4.8412174,0.64614 v 0.44503 l 0.7911101,0.39587 a 0.32278028,0.32278028 0 0 1 0.179024,0.28807 v 0.80751 a 0.32278028,0.32278028 0 0 1 0.3214876,0.32149 v 0.97014 h 1.290991 v -3.22811 z m 5.1318157,0.9695 a 0.32278028,0.32278028 0 0 0 -0.281143,0.40028 l 0.324008,1.291 a 0.32278028,0.32278028 0 0 0 0.312032,0.24331 h 0.646126 a 0.32278028,0.32278028 0 0 0 0.312031,-0.24331 l 0.324009,-1.291 a 0.32278028,0.32278028 0 0 0 -0.312033,-0.40028 h -1.291621 a 0.32278028,0.32278028 0 0 0 -0.03341,0 z m -5.4533032,0.0352 v 0.93169 h 0.6454951 v -0.60768 z m -5.2559986,0.28618 -0.4847524,1.93713 h 4.3791587 l -0.4847524,-1.93713 z m 1.0268674,0.64551 a 0.32278028,0.32278028 0 0 1 0.033412,0 h 1.2916215 a 0.32282305,0.32282305 0 1 1 0,0.64548 h -1.291622 a 0.32325356,0.32325356 0 0 1 -0.033412,-0.64548 z m 3.9051227,0.64548 v 0.64614 h 1.2909908 v -0.64614 z m -6.3837246,1.29162 c -0.039107,0.0995 -0.066676,0.20344 -0.070604,0.30951 l -0.3214872,5.47979 a 0.32278028,0.32278028 0 0 0 -0.00256,0.0189 c 3.6e-6,0.26895 0.1264186,0.50024 0.298164,0.67198 0.1717453,0.17173 0.4030162,0.29816 0.6719713,0.29816 H 2.350107 l 0.3082496,-5.16523 c 0,-0.26894 0.1231996,-0.50022 0.2950121,-0.67197 0.1718111,-0.17176 0.4029612,-0.29563 0.6719713,-0.29563 h 9.682435 c 0.268955,0 0.500224,0.1239 0.67197,0.29563 0.171011,0.17101 0.294577,0.40197 0.295643,0.66946 l 0.0026,0.002 0.308248,5.16523 h 0.337246 c 0.268956,0 0.500227,-0.12642 0.671973,-0.29816 0.171752,-0.17175 0.295014,-0.40302 0.295014,-0.67197 a 0.32278028,0.32278028 0 0 0 0,-0.0189 l -0.323996,-5.47474 c -0.0023,-0.10846 -0.03176,-0.21397 -0.07564,-0.31457 z m 2.1880032,1.291 c -0.054063,0 -0.1439952,0.0376 -0.2143248,0.10784 -0.070336,0.0703 -0.1071624,0.16053 -0.1071624,0.21432 a 0.32278028,0.32278028 0 0 1 -0.00256,0.0189 l -0.3057276,5.14631 H 13.937513 l -0.305728,-5.14631 a 0.32278028,0.32278028 0 0 1 0,-0.0189 c 0,-0.0538 -0.03685,-0.14406 -0.107163,-0.21432 -0.07032,-0.0703 -0.163051,-0.10784 -0.216846,-0.10784 z m 8.7476021,0.64487 a 0.32278028,0.32278028 0 0 1 0.0031,0 0.32278028,0.32278028 0 1 1 -0.0353,0.64423 h -0.324021 c 0,0.43043 -0.646126,0.43043 -0.646126,0 H 4.5955246 a 0.32278028,0.32278028 0 0 1 -0.033412,-0.64298 0.32278028,0.32278028 0 0 1 0.033412,0 h 7.7453184 a 0.32278028,0.32278028 0 0 1 0.03215,-10e-4 z m -3.3037548,1.01362 c 0.2621484,0.0154 0.4970678,0.13713 0.6700807,0.31015 0.1730125,0.17301 0.2917771,0.40475 0.3069881,0.66692 0.01521,0.26216 -0.08917,0.5472 -0.3095098,0.76715 l -0.5528325,0.55284 c -0.3934138,0.39341 -1.04067,0.39341 -1.4340833,0 l -0.5503113,-0.55031 c -0.3174057,-0.30739 -0.3768655,-0.75741 -0.2338653,-1.11007 0.1429999,-0.35266 0.4992854,-0.63211 0.9411374,-0.63163 0.1851353,1.3e-4 0.5685903,0.29879 0.5685903,0.29879 0,0 0.3588986,-0.30384 0.5938057,-0.30384 z m -0.035302,0.6455 v 6.4e-4 c -0.084523,-0.005 -0.1679774,0.0132 -0.2742089,0.11918 l -0.064298,0.0643 c -0.1249392,0.1242 -0.3263338,0.12474 -0.4526037,0.002 l -0.064298,-0.0617 c -0.00245,-0.002 -0.00464,-0.005 -0.00696,-0.007 -0.069494,-0.0718 -0.1648753,-0.11149 -0.2647541,-0.11162 -0.1800023,-1.8e-4 -0.2887677,0.0953 -0.3429186,0.22882 -0.054148,0.13356 -0.043573,0.27948 0.08573,0.40471 7.746e-4,10e-4 0.0017,10e-4 0.00255,0.002 l 0.5547232,0.55284 c 0.1467376,0.14673 0.3752053,0.14673 0.5219439,0 l 0.5528315,-0.55284 c 0.1062353,-0.106 0.1265539,-0.18752 0.1216662,-0.27169 -0.00488,-0.0842 -0.050159,-0.17877 -0.1216662,-0.25025 -0.071495,-0.0716 -0.1632139,-0.1143 -0.2477339,-0.11918 z"
       id="path1118"
       inkscape:connector-curvature="0"
       inkscape:export-xdpi="700.72992"
       inkscape:export-ydpi="700.72992" />
  </g>
</svg>
