<?xml version="1.0" standalone="no"?>
<!DOCTYPE svg PUBLIC "-//W3C//DTD SVG 20010904//EN"
 "http://www.w3.org/TR/2001/REC-SVG-20010904/DTD/svg10.dtd">
<svg version="1.0" xmlns="http://www.w3.org/2000/svg"
 width="1280.000000pt" height="1051.000000pt" viewBox="0 0 1280.000000 1051.000000"
 preserveAspectRatio="xMidYMid meet">
<metadata>
Created by potrace 1.15, written by Peter Selinger 2001-2017
</metadata>
<g transform="translate(0.000000,1051.000000) scale(0.100000,-0.100000)"
fill="#000000" stroke="none">
<path d="M4572 8683 l3 -1828 1825 0 1825 0 3 1828 2 1827 -1830 0 -1830 0 2
-1827z"/>
<path d="M5835 5921 c-60 -27 -103 -68 -133 -125 -24 -46 -27 -63 -30 -183
l-4 -133 -1849 0 c-1239 0 -1882 -4 -1947 -11 -197 -21 -359 -69 -477 -140
-80 -48 -188 -150 -246 -233 l-49 -69 0 -113 c0 -90 4 -125 20 -168 27 -70 86
-129 156 -156 52 -19 76 -20 554 -20 474 0 502 1 553 20 79 30 167 133 167
197 0 12 3 28 6 37 6 15 354 16 3844 16 3490 0 3838 -1 3844 -16 3 -9 6 -25 6
-37 0 -64 88 -167 167 -197 51 -19 79 -20 553 -20 478 0 502 1 554 20 70 27
129 86 156 156 16 43 20 78 20 168 l0 113 -49 69 c-155 221 -376 335 -723 373
-65 7 -708 11 -1946 11 l-1850 0 -4 128 c-3 90 -10 139 -22 167 -25 59 -92
122 -154 145 -50 19 -78 20 -565 20 -474 0 -515 -2 -552 -19z"/>
<path d="M0 1830 l0 -1830 1830 0 1830 0 -2 1828 -3 1827 -1827 3 -1828 2 0
-1830z"/>
<path d="M4577 3653 c-4 -3 -7 -827 -7 -1830 l0 -1823 1830 0 1830 0 -2 1828
-3 1827 -1821 3 c-1001 1 -1824 -1 -1827 -5z"/>
<path d="M9147 3653 c-4 -3 -7 -827 -7 -1830 l0 -1823 1830 0 1830 0 0 1830 0
1830 -1823 0 c-1003 0 -1827 -3 -1830 -7z"/>
</g>
</svg>
